<svg width="1659" height="186" viewBox="0 0 1659 186" fill="none" xmlns="http://www.w3.org/2000/svg">
<path fill-rule="evenodd" clip-rule="evenodd" d="M-8.53601 36.3519V2.55994H90.216V36.3519H63.112V188H18.792V36.3519H-8.53601ZM20.792 34.3519V186H61.112V34.3519H88.216V4.55994H-6.53601V34.3519H20.792ZM142.375 2.55994H191.39L225.96 188H184.883L178.835 149.696H155.587L149.315 188H107.347L142.375 2.55994ZM153.888 147.696H180.544L186.592 186H223.552L189.728 4.55994H144.032L109.76 186H147.616L153.888 147.696ZM167.104 52.9439L157.472 123.728H176.736L167.104 52.9439ZM167.104 67.7771L159.763 121.728H174.446L167.104 67.7771ZM241.67 36.3519V2.55994H340.422V36.3519H313.318V188H268.998V36.3519H241.67ZM270.998 34.3519V186H311.318V34.3519H338.422V4.55994H243.67V34.3519H270.998ZM363.82 36.3519V2.55994H462.572V36.3519H435.468V188H391.148V36.3519H363.82ZM393.148 34.3519V186H433.468V34.3519H460.572V4.55994H365.82V34.3519H393.148ZM505.737 174.957L505.732 174.951C496.959 164.298 492.732 148.833 492.732 128.88V61.4559C492.732 41.5107 496.956 26.1784 505.748 15.8133C514.65 5.1693 529.315 0.0959473 549.164 0.0959473C569.159 0.0959473 583.904 5.16792 592.808 15.8179C601.742 26.3254 606.044 41.6495 606.044 61.4559V128.88C606.044 148.839 601.74 164.308 592.811 174.963C583.907 185.615 569.161 190.688 549.164 190.688C529.311 190.688 514.643 185.612 505.742 174.963L505.737 174.957ZM591.276 173.68C599.788 163.525 604.044 148.592 604.044 128.88V61.4559C604.044 41.8933 599.788 27.1093 591.276 17.104C582.914 7.09862 568.876 2.09595 549.164 2.09595C529.602 2.09595 515.639 7.09862 507.276 17.104C498.914 26.96 494.732 41.7439 494.732 61.4559V128.88C494.732 148.592 498.914 163.525 507.276 173.68C515.639 183.685 529.602 188.688 549.164 188.688C568.876 188.688 582.914 183.685 591.276 173.68ZM540.222 36.9958L540.215 37.0094C538.607 40.36 537.724 45.1719 537.724 51.5999V138.96C537.724 145.39 538.532 150.313 540.025 153.849C541.227 156.564 543.927 158.24 549.164 158.24C554.394 158.24 557.216 156.564 558.555 153.788C560.174 150.272 561.052 145.373 561.052 138.96V51.5999C561.052 45.0145 560.167 40.1314 558.561 36.7854C557.225 34.0017 554.402 32.3199 549.164 32.3199C546.706 32.3199 544.818 32.7648 543.397 33.5345C542.004 34.289 540.953 35.4121 540.228 36.9821L540.222 36.9958ZM560.364 154.64C558.572 158.373 554.839 160.24 549.164 160.24C543.49 160.24 539.831 158.373 538.188 154.64C536.546 150.757 535.724 145.531 535.724 138.96V51.5999C535.724 45.0293 536.62 39.8773 538.412 36.144C540.204 32.2613 543.788 30.3199 549.164 30.3199C554.839 30.3199 558.572 32.1866 560.364 35.92C562.156 39.6533 563.052 44.8799 563.052 51.5999V138.96C563.052 145.531 562.156 150.757 560.364 154.64ZM659.387 174.957L659.382 174.951C650.609 164.298 646.382 148.833 646.382 128.88V61.4559C646.382 41.514 650.604 26.1835 659.394 15.8185C668.295 5.17095 682.962 0.0959473 702.814 0.0959473C722.807 0.0959473 737.55 5.16655 746.454 15.8136C755.391 26.3212 759.694 41.6468 759.694 61.4559V128.88C759.694 148.839 755.39 164.308 746.461 174.963C737.557 185.615 722.811 190.688 702.814 190.688C682.961 190.688 668.293 185.612 659.392 174.963L659.387 174.957ZM744.926 173.68C753.438 163.525 757.694 148.592 757.694 128.88V61.4559C757.694 41.8933 753.438 27.1093 744.926 17.104C736.564 7.09862 722.526 2.09595 702.814 2.09595C683.252 2.09595 669.289 7.09862 660.926 17.104C652.564 26.96 648.382 41.7439 648.382 61.4559V128.88C648.382 148.592 652.564 163.525 660.926 173.68C669.289 183.685 683.252 188.688 702.814 188.688C722.526 188.688 736.564 183.685 744.926 173.68ZM693.872 36.9958L693.865 37.0094C692.257 40.36 691.374 45.1719 691.374 51.5999V138.96C691.374 145.388 692.181 150.31 693.674 153.846C694.875 156.563 697.575 158.24 702.814 158.24C708.044 158.24 710.866 156.564 712.205 153.788C713.824 150.272 714.702 145.373 714.702 138.96V51.5999C714.702 45.0145 713.817 40.1314 712.211 36.7854C710.875 34.0017 708.052 32.3199 702.814 32.3199C700.357 32.3199 698.468 32.7648 697.047 33.5345C695.654 34.289 694.603 35.4121 693.878 36.9821L693.872 36.9958ZM714.014 154.64C712.222 158.373 708.489 160.24 702.814 160.24C697.14 160.24 693.481 158.373 691.838 154.64C690.196 150.757 689.374 145.531 689.374 138.96V51.5999C689.374 45.0293 690.27 39.8773 692.062 36.144C693.854 32.2613 697.438 30.3199 702.814 30.3199C708.489 30.3199 712.222 32.1866 714.014 35.92C715.806 39.6533 716.702 44.8799 716.702 51.5999V138.96C716.702 145.531 715.806 150.757 714.014 154.64ZM882.209 2.55994H967.745V33.8879H926.305V74.912H957.889V106.688H926.305V156.896H968.193V188H882.209V2.55994ZM924.305 158.896V104.688H955.889V76.912H924.305V31.8879H965.745V4.55994H884.209V186H966.193V158.896H924.305ZM1030.09 88.336L996.492 4.55994H1034.35L1054.28 53.616L1070.41 4.55994H1103.79L1071.98 98.864L1107.37 186H1069.74L1047.56 131.792L1028.08 186H994.924L1030.09 88.336ZM1047.68 137.369L1029.48 188H992.078L1027.95 88.3743L993.535 2.55994H1035.69L1054.09 47.8156L1068.96 2.55994H1106.57L1074.11 98.7994L1110.34 188H1068.4L1047.68 137.369ZM1142.48 2.55994H1205.41C1221.76 2.55994 1234.35 7.2346 1242.75 16.9107C1251.1 26.3645 1255.12 39.8996 1255.12 57.1999C1255.12 76.8455 1250.44 91.1092 1240.5 99.2885L1240.5 99.2907C1230.91 107.15 1217.55 110.944 1200.7 110.944H1186.57V188H1142.48V2.55994ZM1184.57 108.944H1200.7C1217.28 108.944 1230.12 105.211 1239.23 97.7439C1248.49 90.1279 1253.12 76.6133 1253.12 57.1999C1253.12 40.1759 1249.16 27.184 1241.25 18.224C1233.33 9.11461 1221.38 4.55994 1205.41 4.55994H1144.48V186H1184.57V108.944ZM1210.2 74.2902L1210.22 74.2658C1212.28 71.0425 1213.49 65.2681 1213.49 56.528C1213.49 48.5744 1212.37 43.0299 1210.39 39.6074C1208.7 36.6666 1204.87 34.784 1197.79 34.784H1186.57V78.944H1198.01C1204.78 78.944 1208.49 77.1406 1210.19 74.315L1210.2 74.2902ZM1184.57 80.944V32.784H1197.79C1205.11 32.784 1209.89 34.7253 1212.13 38.6079C1214.37 42.4906 1215.49 48.4639 1215.49 56.528C1215.49 65.3386 1214.29 71.6106 1211.9 75.3439C1209.66 79.0773 1205.03 80.944 1198.01 80.944H1184.57ZM1292.85 2.55994H1378.38V33.8879H1336.94V74.912H1368.53V106.688H1336.94V156.896H1378.83V188H1292.85V2.55994ZM1334.94 158.896V104.688H1366.53V76.912H1334.94V31.8879H1376.38V4.55994H1294.85V186H1376.83V158.896H1334.94ZM1415.43 2.55994H1467.39C1487.43 2.55994 1502.91 6.09112 1513.55 13.4427C1524.46 20.9843 1529.64 34.2353 1529.64 52.496C1529.64 64.7327 1528.06 74.6729 1524.77 82.1936C1521.6 89.441 1515.89 95.1093 1507.84 99.2484L1532.97 188H1487.32L1467.38 106.688H1459.53V188H1415.43V2.55994ZM1457.53 104.688H1468.95L1488.89 186H1530.33L1505.47 98.192C1513.98 94.1599 1519.8 88.56 1522.94 81.392C1526.07 74.224 1527.64 64.5919 1527.64 52.496C1527.64 34.576 1522.56 22.1066 1512.41 15.088C1502.26 8.06927 1487.25 4.55994 1467.39 4.55994H1417.43V186H1457.53V104.688ZM1483.93 74.144L1483.94 74.1352C1486.85 70.2999 1488.46 64.3865 1488.46 56.0799C1488.46 48.0452 1486.99 42.4323 1484.37 38.9024L1484.36 38.8885L1484.35 38.8744C1481.88 35.4184 1477.49 33.4399 1470.52 33.4399H1459.53V79.616H1468.73C1476.51 79.616 1481.34 77.5955 1483.93 74.144ZM1457.53 81.616V31.4399H1470.52C1477.84 31.4399 1482.99 33.5306 1485.98 37.7119C1488.96 41.7439 1490.46 47.8666 1490.46 56.0799C1490.46 64.5919 1488.82 71.0133 1485.53 75.3439C1482.39 79.5253 1476.79 81.616 1468.73 81.616H1457.53ZM1559.42 36.3519V2.55994H1658.17V36.3519H1631.07V188H1586.75V36.3519H1559.42ZM1588.75 34.3519V186H1629.07V34.3519H1656.17V4.55994H1561.42V34.3519H1588.75Z" fill="white" fill-opacity="0.24"/>
</svg>
